<?xml version="1.0" standalone="no"?>
<!DOCTYPE svg PUBLIC "-//W3C//DTD SVG 20010904//EN"
 "http://www.w3.org/TR/2001/REC-SVG-20010904/DTD/svg10.dtd">
<svg version="1.0" xmlns="http://www.w3.org/2000/svg"
 width="850.000000pt" height="378.000000pt" viewBox="0 0 850.000000 378.000000"
 preserveAspectRatio="xMidYMid meet">

<g transform="translate(0.000000,378.000000) scale(0.100000,-0.100000)"
fill="#000000" stroke="none">
<path d="M80 1875 l0 -1835 1180 0 1180 0 0 1091 c0 1006 1 1093 17 1104 15
11 15 14 0 36 -15 20 -17 54 -17 241 l0 217 30 18 c17 9 30 21 30 25 0 14 -22
20 -33 9 -6 -6 -15 -11 -19 -11 -4 0 -8 212 -8 470 l0 470 -1180 0 -1180 0 0
-1835z m2340 1555 l1 -250 -1156 0 -1155 0 0 250 0 250 1154 0 1155 0 1 -250z
m-3 -477 l2 -193 -1155 0 -1154 0 0 188 c0 104 3 192 7 195 3 4 522 6 1152 5
l1146 -3 2 -192z m-2 -418 l0 -190 -1152 -3 -1153 -2 0 195 0 195 1153 -2
1152 -3 0 -190z m2 -427 l2 -188 -1154 0 -1155 0 0 190 0 190 1153 -2 1152 -3
2 -187z m0 -420 l2 -188 -1155 0 -1154 0 0 190 0 190 1153 -2 1152 -3 2 -187z
m0 -420 l2 -188 -1155 0 -1154 0 0 190 0 190 1153 -2 1152 -3 2 -187z m-2
-501 l0 -267 -1150 0 -1150 0 -3 270 -2 270 1152 -2 1153 -3 0 -268z m3 -495
l3 -192 -1155 0 -1156 0 0 188 c0 104 3 192 7 195 3 4 522 6 1152 5 l1146 -3
3 -193z"/>
<path d="M1358 3528 c7 -7 12 -42 12 -88 0 -46 -5 -81 -12 -88 -9 -9 -2 -12
31 -12 37 0 42 2 32 14 -19 22 -10 100 12 104 15 3 17 -5 17 -57 l0 -61 32 0
c25 0 29 3 20 12 -7 7 -12 32 -12 58 0 60 -10 74 -49 68 -29 -4 -31 -3 -31 29
0 30 -2 33 -32 33 -25 0 -29 -3 -20 -12z"/>
<path d="M1888 3528 c5 -7 13 -23 16 -35 7 -21 5 -22 -25 -16 -25 5 -35 2 -46
-12 -16 -23 -17 -97 -1 -113 14 -14 68 -16 68 -2 0 6 -9 10 -20 10 -17 0 -20
7 -20 50 0 43 3 50 20 50 20 0 26 -22 20 -73 -1 -10 4 -25 10 -33 14 -16 50
-19 50 -4 0 6 -4 10 -10 10 -6 0 -10 37 -10 90 l0 90 -31 0 c-24 0 -29 -3 -21
-12z"/>
<path d="M290 3520 c0 -5 5 -10 10 -10 15 0 13 -143 -2 -158 -9 -9 1 -12 44
-12 79 0 113 29 113 95 0 66 -34 95 -111 95 -30 0 -54 -4 -54 -10z m114 -32
c32 -45 9 -128 -35 -128 -17 0 -19 7 -19 75 0 68 2 75 19 75 11 0 27 -10 35
-22z"/>
<path d="M515 3505 c-20 -19 -25 -34 -25 -73 0 -60 28 -92 81 -92 51 0 79 33
79 94 0 58 -32 96 -80 96 -19 0 -40 -9 -55 -25z m83 -7 c13 -13 16 -106 4
-124 -13 -19 -41 -23 -57 -8 -10 10 -15 34 -15 68 0 53 12 76 40 76 9 0 21 -5
28 -12z"/>
<path d="M700 3512 c-34 -27 -21 -66 30 -92 42 -21 50 -40 26 -59 -18 -15 -43
-5 -49 21 -7 24 -27 15 -27 -12 0 -20 19 -30 60 -30 34 0 60 23 60 54 0 23
-28 56 -47 56 -16 0 -46 38 -38 49 9 16 35 13 41 -4 9 -22 34 -19 34 4 0 34
-54 42 -90 13z"/>
<path d="M890 3520 c0 -5 5 -10 10 -10 15 0 13 -143 -2 -158 -9 -9 -5 -12 21
-12 28 0 31 2 22 14 -7 9 -11 38 -9 73 l3 58 23 -72 c13 -40 28 -73 33 -73 4
0 19 33 31 73 l23 72 3 -58 c2 -35 -2 -64 -9 -73 -10 -12 -4 -14 32 -14 33 0
40 3 31 12 -15 15 -17 158 -2 158 6 0 10 5 10 10 0 6 -16 10 -35 10 -34 0 -35
-2 -52 -60 -10 -33 -20 -60 -23 -60 -3 0 -13 27 -23 60 -17 58 -18 60 -52 60
-19 0 -35 -4 -35 -10z"/>
<path d="M1134 3515 c-4 -8 -3 -23 1 -32 6 -16 8 -15 16 5 6 16 16 22 39 22
l31 0 -28 -47 c-15 -27 -35 -61 -45 -78 -10 -16 -18 -33 -18 -37 0 -5 32 -8
70 -8 68 0 70 1 70 25 0 14 -4 25 -10 25 -5 0 -10 -7 -10 -15 0 -11 -11 -15
-36 -15 l-36 0 28 48 c15 26 36 60 45 76 10 16 16 33 13 38 -3 4 -32 8 -65 8
-44 0 -61 -4 -65 -15z"/>
<path d="M1540 3461 c-15 -30 -12 -88 6 -106 19 -19 85 -17 92 2 2 9 -5 11
-26 7 -24 -5 -32 -2 -41 14 -14 26 -6 32 41 32 42 0 48 12 22 48 -20 29 -79
31 -94 3z m64 -7 c10 -26 7 -34 -14 -34 -13 0 -20 7 -20 18 0 33 23 44 34 16z"/>
<path d="M1685 3470 c-4 -7 -2 -17 5 -23 9 -9 15 -7 26 8 13 17 16 18 24 5 14
-22 7 -35 -23 -38 -34 -4 -51 -26 -43 -56 5 -22 11 -24 66 -24 46 0 58 3 51
12 -5 6 -11 36 -13 66 l-3 55 -42 3 c-23 2 -44 -2 -48 -8z m65 -69 c0 -21 -13
-41 -26 -41 -14 0 -19 31 -7 43 10 10 33 8 33 -2z"/>
<path d="M1997 3462 c-10 -10 -17 -34 -17 -54 0 -45 27 -71 71 -66 43 4 48 23
7 23 -27 0 -34 4 -36 23 -3 20 1 22 37 22 44 0 51 12 31 51 -14 25 -71 26 -93
1z m63 -23 c0 -12 -7 -19 -20 -19 -22 0 -26 20 -8 38 15 15 28 6 28 -19z"/>
<path d="M2128 3468 c14 -14 16 -108 2 -108 -5 0 -10 -4 -10 -10 0 -5 19 -10
41 -10 37 0 40 2 28 16 -18 22 -21 48 -9 80 9 22 13 24 26 14 17 -15 41 1 30
19 -9 15 -39 14 -54 -1 -9 -9 -12 -9 -12 0 0 7 -12 12 -27 12 -21 0 -24 -3
-15 -12z"/>
<path d="M1678 3048 c7 -7 12 -42 12 -88 0 -46 -5 -81 -12 -88 -9 -9 -9 -12 3
-12 8 0 20 5 26 11 8 8 13 8 17 0 23 -36 76 10 76 64 0 47 -20 69 -58 63 -30
-4 -32 -3 -32 29 0 27 -4 33 -22 33 -17 0 -19 -3 -10 -12z m93 -91 c10 -38 -5
-77 -30 -77 -21 0 -31 18 -31 59 0 54 48 68 61 18z"/>
<path d="M733 3032 c12 -13 17 -37 17 -77 0 -40 -5 -64 -17 -77 -15 -17 -14
-18 28 -17 73 2 92 11 108 52 11 30 12 45 3 76 -14 45 -43 61 -109 61 -44 0
-45 -1 -30 -18z m105 -20 c18 -23 15 -92 -5 -114 -9 -10 -27 -18 -40 -18 -22
0 -23 3 -23 73 0 41 3 76 6 79 9 9 48 -3 62 -20z"/>
<path d="M932 3027 c-17 -18 -22 -36 -22 -74 0 -44 4 -55 26 -72 58 -46 124
-7 124 72 0 86 -76 130 -128 74z m80 1 c21 -17 29 -55 21 -101 -10 -67 -72
-75 -93 -11 -25 75 23 150 72 112z"/>
<path d="M1106 3034 c-23 -23 -19 -51 9 -71 68 -48 68 -48 56 -71 -15 -28 -36
-28 -55 0 -18 25 -36 16 -20 -10 25 -40 104 -18 104 28 0 18 -36 60 -51 60 -4
0 -15 7 -23 16 -12 12 -13 20 -6 35 13 24 36 25 49 2 11 -21 26 -11 18 12 -8
20 -61 20 -81 -1z"/>
<path d="M1306 3029 c-19 -28 -8 -59 29 -79 40 -22 52 -44 36 -64 -18 -22 -37
-20 -55 6 -17 23 -32 19 -23 -6 8 -21 54 -31 83 -17 40 18 33 62 -16 95 -42
28 -52 59 -23 70 11 5 22 1 30 -10 15 -20 28 -12 20 11 -9 23 -63 19 -81 -6z"/>
<path d="M1438 3011 c-9 -10 -12 -23 -8 -27 5 -5 10 -34 12 -64 3 -50 5 -55
28 -58 22 -2 23 -1 8 8 -14 8 -18 24 -18 65 0 43 4 54 18 58 15 4 15 5 0 6 -9
0 -18 8 -20 16 -2 13 -6 13 -20 -4z"/>
<path d="M1518 2988 c7 -7 12 -33 12 -59 0 -26 6 -51 13 -56 17 -14 111 -13
97 1 -5 5 -10 36 -10 68 0 52 -2 58 -21 58 -17 0 -19 -3 -10 -14 7 -8 11 -34
9 -58 -3 -38 -6 -43 -28 -43 -23 0 -25 4 -28 58 -3 51 -5 57 -24 57 -17 0 -19
-3 -10 -12z"/>
<path d="M1578 2628 c7 -7 12 -23 12 -35 0 -21 -3 -22 -21 -13 -16 9 -26 8
-45 -5 -19 -12 -24 -24 -24 -60 0 -62 43 -98 78 -63 9 9 12 9 12 0 0 -7 10
-12 22 -12 17 0 19 3 10 12 -8 8 -12 45 -12 100 0 84 -1 88 -22 88 -17 0 -19
-3 -10 -12z m2 -77 c22 -43 6 -91 -31 -91 -19 0 -29 20 -29 59 0 47 40 69 60
32z"/>
<path d="M658 2623 c16 -6 17 -154 0 -171 -9 -9 -3 -12 27 -12 37 0 38 1 21
19 -25 27 -17 55 16 59 28 3 58 35 58 59 0 30 -39 53 -87 52 -27 0 -42 -3 -35
-6z m81 -17 c7 -8 11 -27 9 -43 -2 -22 -9 -29 -30 -31 -26 -3 -28 -1 -28 36 0
21 3 42 7 45 11 11 30 8 42 -7z"/>
<path d="M808 2618 c16 -16 16 -150 0 -166 -9 -9 3 -12 55 -12 66 0 67 0 67
28 -1 23 -2 24 -11 10 -6 -11 -22 -18 -39 -18 -28 0 -30 3 -30 35 0 33 10 41
43 36 4 0 7 4 7 9 0 6 -11 10 -25 10 -22 0 -25 4 -25 35 0 31 3 35 25 35 14 0
28 -7 31 -15 9 -22 23 -18 17 5 -5 17 -14 20 -66 20 -47 0 -58 -3 -49 -12z"/>
<path d="M1033 2619 c24 -14 25 -134 0 -161 -15 -17 -14 -18 22 -18 30 0 36 3
27 12 -7 7 -12 27 -12 45 0 32 1 33 40 33 39 0 40 -1 40 -33 0 -18 -5 -38 -12
-45 -9 -9 -3 -12 27 -12 30 0 36 3 27 12 -17 17 -16 165 1 171 6 3 -6 5 -28 5
-22 0 -34 -2 -27 -5 6 -2 12 -20 12 -39 0 -33 -1 -34 -40 -34 -37 0 -40 2 -40
28 0 15 5 33 12 40 9 9 3 12 -27 12 -32 -1 -37 -3 -22 -11z"/>
<path d="M1250 2572 c-17 -14 -22 -28 -22 -62 1 -63 42 -89 87 -56 17 12 15
14 -21 12 -33 -1 -39 2 -42 22 -3 20 1 22 37 22 37 0 41 3 41 24 0 14 -10 32
-22 40 -28 20 -31 20 -58 -2z m50 -22 c10 -18 8 -20 -20 -20 -18 0 -30 5 -30
13 0 32 34 37 50 7z"/>
<path d="M1383 2583 c-15 -6 -17 -33 -3 -33 6 0 10 5 10 10 0 6 9 10 21 10 35
0 21 -44 -16 -50 -25 -4 -31 -10 -33 -37 -2 -25 1 -33 18 -38 12 -4 28 -1 37
7 13 10 17 10 20 1 3 -7 10 -13 17 -13 9 0 11 16 8 58 -6 76 -32 105 -79 85z
m45 -95 c-4 -30 -48 -39 -48 -10 0 10 3 22 7 25 3 4 15 7 25 7 14 0 19 -6 16
-22z"/>
<path d="M1670 2570 c-52 -52 -2 -149 64 -124 26 10 18 19 -15 19 -24 0 -34 6
-40 23 -8 21 -6 22 37 22 45 0 46 1 40 28 -13 51 -52 66 -86 32z m58 -23 c3
-12 -3 -17 -22 -17 -25 0 -35 18 -19 34 12 12 38 2 41 -17z"/>
<path d="M1842 2581 c-7 -4 -25 -6 -40 -4 -15 2 -21 0 -14 -3 16 -7 16 -106 0
-122 -9 -9 -3 -12 28 -12 34 1 37 2 22 14 -22 16 -24 75 -3 102 12 16 16 17
24 4 12 -18 26 -7 18 15 -7 17 -16 19 -35 6z"/>
<path d="M810 2211 c0 -6 5 -13 10 -16 6 -3 10 1 10 9 0 9 -4 16 -10 16 -5 0
-10 -4 -10 -9z"/>
<path d="M1788 2213 c6 -2 12 -16 12 -29 0 -21 -4 -23 -24 -18 -15 3 -29 -1
-40 -11 -21 -22 -22 -98 0 -119 18 -19 28 -20 55 -6 13 7 19 7 19 0 0 -5 9
-10 20 -10 11 0 20 5 20 10 0 6 -4 10 -10 10 -6 0 -10 37 -10 90 l0 90 -27 -1
c-16 0 -22 -3 -15 -6z m7 -118 c0 -41 -3 -50 -19 -53 -22 -5 -36 14 -36 50 0
42 10 59 34 56 18 -3 21 -10 21 -53z"/>
<path d="M330 2196 c-20 -25 -7 -60 33 -85 48 -32 53 -71 7 -71 -20 0 -30 5
-30 15 0 8 -4 15 -10 15 -5 0 -10 -9 -10 -20 0 -25 42 -37 76 -21 18 8 24 19
24 41 0 24 -8 35 -41 55 -30 20 -39 32 -37 48 4 27 37 35 54 12 9 -11 14 -13
19 -4 17 27 -63 41 -85 15z"/>
<path d="M1248 2203 c15 -6 17 -163 2 -163 -5 0 -10 -4 -10 -10 0 -5 16 -10
35 -10 19 0 35 5 35 10 0 6 -4 10 -10 10 -5 0 -10 18 -10 41 l0 40 38 -3 c35
-3 37 -5 40 -40 2 -22 -1 -38 -7 -38 -6 0 -11 -4 -11 -10 0 -5 16 -10 35 -10
36 0 47 13 20 24 -23 9 -21 141 3 155 14 8 9 10 -22 11 -31 0 -37 -3 -28 -12
7 -7 12 -25 12 -40 0 -26 -3 -28 -40 -28 -39 0 -40 1 -40 34 0 19 6 37 13 39
6 3 -6 5 -28 5 -22 0 -34 -2 -27 -5z"/>
<path d="M715 2170 c-10 -11 -13 -20 -7 -20 8 0 12 -20 12 -53 0 -29 5 -58 12
-65 15 -15 38 -16 38 -2 0 6 -7 10 -15 10 -12 0 -15 13 -15 55 0 42 3 55 15
55 8 0 15 5 15 11 0 5 -4 8 -9 4 -6 -3 -14 2 -18 10 -8 14 -12 13 -28 -5z"/>
<path d="M470 2150 c-52 -52 -2 -149 64 -124 26 10 18 22 -11 16 -18 -3 -30 1
-40 13 -20 29 -16 34 30 37 38 3 42 5 39 28 -2 26 -26 50 -49 50 -7 0 -22 -9
-33 -20z m58 -23 c3 -13 -3 -17 -28 -17 -28 0 -30 2 -20 21 13 24 43 22 48 -4z"/>
<path d="M607 2152 c-10 -11 -17 -35 -17 -59 0 -50 27 -78 65 -69 31 8 33 25
2 19 -32 -6 -49 18 -45 64 2 31 7 39 26 41 12 2 22 -1 22 -7 0 -6 5 -11 10
-11 16 0 11 27 -6 34 -26 10 -40 7 -57 -12z"/>
<path d="M794 2158 c-3 -4 0 -8 5 -8 7 0 11 -23 11 -55 0 -30 -4 -55 -10 -55
-5 0 -10 -4 -10 -10 0 -5 14 -10 30 -10 29 0 40 13 20 25 -5 3 -10 32 -10 64
0 45 -3 58 -15 58 -9 0 -18 -4 -21 -9z"/>
<path d="M902 2154 c-44 -30 -22 -134 29 -134 8 0 25 7 37 16 17 12 22 25 22
59 0 34 -5 47 -22 59 -12 9 -27 16 -33 16 -6 0 -21 -7 -33 -16z m56 -16 c13
-13 16 -56 6 -82 -8 -21 -50 -21 -58 0 -16 41 -3 94 23 94 9 0 22 -5 29 -12z"/>
<path d="M1016 2161 c-4 -5 -2 -11 3 -13 11 -4 21 -97 10 -104 -19 -11 -8 -24
21 -24 17 0 30 5 30 10 0 6 -4 10 -10 10 -11 0 -14 69 -4 94 3 9 14 16 24 16
23 0 30 -19 30 -81 0 -42 3 -49 20 -49 11 0 20 5 20 10 0 6 -4 10 -10 10 -5 0
-10 22 -10 49 0 65 -35 102 -67 70 -8 -8 -17 -8 -31 0 -12 7 -23 7 -26 2z"/>
<path d="M1468 2159 c-22 -12 -32 -67 -19 -101 11 -29 40 -43 71 -33 31 10 24
22 -10 17 -24 -3 -31 0 -39 19 -8 22 -6 24 33 29 48 6 58 28 27 59 -23 23 -37
25 -63 10z m52 -29 c10 -18 8 -20 -25 -20 -33 0 -35 2 -25 20 6 11 17 20 25
20 8 0 19 -9 25 -20z"/>
<path d="M1603 2163 c-15 -6 -17 -33 -3 -33 6 0 10 5 10 10 0 6 9 10 21 10 34
0 21 -44 -14 -48 -30 -4 -50 -32 -41 -56 8 -22 42 -30 61 -14 13 10 17 10 20
1 5 -15 33 -18 33 -4 0 6 -4 13 -10 16 -5 3 -10 28 -10 54 0 62 -22 83 -67 64z
m45 -95 c-4 -30 -48 -39 -48 -10 0 10 3 22 7 25 3 4 15 7 25 7 14 0 19 -6 16
-22z"/>
<path d="M1890 2150 c-12 -12 -20 -33 -20 -55 0 -58 59 -98 90 -60 11 13 8 14
-18 9 -24 -5 -32 -2 -41 14 -16 30 -15 31 32 34 38 3 42 5 39 28 -2 26 -26 50
-49 50 -7 0 -22 -9 -33 -20z m58 -22 c3 -14 -3 -18 -26 -18 -25 0 -29 3 -25
21 7 25 46 22 51 -3z"/>
<path d="M2000 2159 c0 -5 5 -9 10 -9 6 0 10 -25 10 -55 0 -30 -4 -55 -10 -55
-5 0 -10 -4 -10 -10 0 -5 14 -10 30 -10 17 0 30 5 30 10 0 6 -4 10 -10 10 -17
0 -12 86 7 101 13 11 17 11 20 2 6 -18 23 -16 23 2 0 20 -27 30 -44 16 -7 -6
-16 -8 -20 -4 -10 11 -36 12 -36 2z"/>
<path d="M2138 2159 c-26 -15 -22 -46 10 -66 32 -21 43 -34 36 -45 -7 -12 -44
-10 -44 2 0 6 -4 10 -10 10 -18 0 -10 -29 10 -35 41 -13 77 15 63 50 -3 9 -18
22 -34 31 -33 17 -39 44 -9 44 11 0 20 -4 20 -10 0 -5 5 -10 10 -10 16 0 11
27 -6 34 -21 8 -26 7 -46 -5z"/>
<path d="M1236 1793 c-11 -11 -6 -23 9 -23 8 0 15 4 15 9 0 13 -16 22 -24 14z"/>
<path d="M757 1772 c-10 -10 -17 -25 -17 -34 0 -17 41 -58 58 -58 20 0 35 -39
21 -56 -17 -21 -50 -17 -56 6 -6 22 -23 28 -23 8 0 -28 18 -39 56 -36 32 2 40
8 49 32 9 25 6 31 -20 52 -57 45 -65 54 -59 69 9 21 54 20 54 -2 0 -13 3 -14
12 -5 8 8 8 15 -2 27 -17 20 -53 19 -73 -3z"/>
<path d="M1695 1765 c-23 -19 -26 -25 -12 -25 9 0 17 5 17 10 0 6 5 10 10 10
6 0 10 -30 10 -70 0 -64 -2 -72 -22 -80 -18 -7 -13 -9 27 -9 39 0 46 2 33 10
-15 8 -18 25 -18 94 0 47 -3 85 -7 85 -5 -1 -21 -12 -38 -25z"/>
<path d="M1150 1755 c0 -8 -4 -15 -9 -15 -5 0 -7 -21 -4 -47 8 -86 11 -93 41
-92 17 1 20 3 10 6 -24 6 -27 113 -3 113 8 0 15 5 15 10 0 6 -7 10 -15 10 -8
0 -15 7 -15 15 0 8 -4 15 -10 15 -5 0 -10 -7 -10 -15z"/>
<path d="M890 1721 c-5 -11 -10 -34 -10 -51 0 -50 16 -70 55 -70 19 0 35 5 35
11 0 6 -8 8 -19 4 -21 -6 -51 18 -51 41 0 10 12 14 40 14 30 0 40 4 40 16 0
32 -20 54 -50 54 -19 0 -33 -7 -40 -19z m58 -3 c21 -21 13 -38 -18 -38 -18 0
-30 5 -30 13 0 13 19 37 30 37 3 0 11 -5 18 -12z"/>
<path d="M1027 1722 c-20 -22 -22 -80 -3 -105 17 -21 77 -20 84 1 3 11 0 12
-18 2 -43 -23 -77 39 -50 91 13 23 36 25 48 3 6 -11 11 -13 16 -5 20 32 -49
44 -77 13z"/>
<path d="M1228 1728 c19 -19 15 -105 -5 -117 -15 -8 -10 -10 22 -11 30 0 36 3
27 12 -7 7 -12 38 -12 70 0 53 -2 58 -22 58 -17 0 -19 -3 -10 -12z"/>
<path d="M1316 1718 c-34 -48 -8 -118 43 -118 37 0 56 23 56 70 0 21 -7 45
-14 54 -20 24 -67 20 -85 -6z m62 0 c17 -17 15 -83 -3 -98 -28 -23 -45 -4 -45
48 0 27 3 52 7 55 10 11 28 8 41 -5z"/>
<path d="M1449 1727 c15 -15 14 -100 -1 -115 -9 -9 -4 -12 22 -12 26 0 31 3
22 12 -17 17 -15 84 4 103 26 26 44 1 44 -61 0 -48 2 -54 21 -54 16 0 19 3 11
13 -6 7 -12 37 -14 67 l-3 55 -59 2 c-43 1 -55 -2 -47 -10z"/>
<path d="M1237 1373 c-12 -11 -8 -23 8 -23 8 0 15 7 15 15 0 16 -12 20 -23 8z"/>
<path d="M756 1351 c-24 -27 -17 -51 24 -79 44 -29 55 -49 40 -68 -18 -21 -51
-17 -57 6 -6 23 -23 27 -23 6 0 -23 27 -38 62 -34 26 2 35 9 43 32 9 25 6 31
-20 52 -57 45 -65 54 -59 68 9 22 32 27 49 9 20 -19 33 -9 15 12 -17 21 -53
19 -74 -4z"/>
<path d="M1682 1358 c-14 -14 -16 -38 -3 -38 5 0 11 7 15 15 7 18 43 20 49 3
6 -19 -11 -59 -44 -100 -16 -20 -29 -42 -29 -47 0 -18 100 -14 107 4 8 22 -4
30 -21 16 -8 -7 -26 -11 -40 -9 l-26 3 40 50 c22 28 40 60 40 72 0 36 -61 58
-88 31z"/>
<path d="M1144 1333 c-8 -19 -6 -105 2 -135 4 -12 15 -18 32 -17 17 1 21 3 10
6 -14 3 -18 15 -18 55 0 37 5 55 18 64 16 13 16 13 0 14 -10 0 -18 7 -18 15 0
21 -16 19 -26 -2z"/>
<path d="M890 1301 c-5 -11 -10 -34 -10 -51 0 -17 5 -40 10 -51 13 -24 62 -25
81 -2 13 15 12 15 -8 5 -28 -15 -28 -15 -47 4 -28 28 -20 44 24 44 35 0 40 3
40 23 0 13 -5 28 -12 35 -19 19 -66 15 -78 -7z m60 -6 c15 -18 5 -35 -20 -35
-10 0 -22 5 -25 10 -7 11 12 40 25 40 4 0 13 -7 20 -15z"/>
<path d="M1022 1300 c-18 -30 -15 -84 7 -104 22 -20 72 -18 79 2 3 11 0 12
-18 2 -43 -23 -77 39 -50 91 13 23 36 25 48 3 6 -11 11 -13 16 -5 12 18 -3 31
-37 31 -21 0 -36 -7 -45 -20z"/>
<path d="M1228 1308 c19 -19 15 -105 -5 -117 -15 -8 -10 -10 22 -11 30 0 36 3
27 12 -7 7 -12 38 -12 70 0 53 -2 58 -22 58 -17 0 -19 -3 -10 -12z"/>
<path d="M1316 1298 c-34 -48 -8 -118 43 -118 37 0 56 23 56 70 0 21 -7 45
-14 54 -20 24 -67 20 -85 -6z m62 0 c17 -17 15 -83 -3 -98 -28 -23 -45 -4 -45
48 0 27 3 52 7 55 10 11 28 8 41 -5z"/>
<path d="M1449 1307 c15 -15 14 -100 -1 -115 -9 -9 -4 -12 22 -12 26 0 31 3
22 12 -17 17 -15 84 4 103 26 26 44 1 44 -61 0 -48 2 -54 21 -54 16 0 19 3 11
13 -6 7 -12 37 -14 67 l-3 55 -59 2 c-43 1 -55 -2 -47 -10z"/>
<path d="M1270 985 c0 -8 9 -15 20 -15 11 0 20 7 20 15 0 8 -9 15 -20 15 -11
0 -20 -7 -20 -15z"/>
<path d="M1277 853 c-14 -13 -6 -33 13 -33 13 0 20 7 20 20 0 19 -20 27 -33
13z"/>
<path d="M1270 695 c0 -8 9 -15 20 -15 11 0 20 7 20 15 0 8 -9 15 -20 15 -11
0 -20 -7 -20 -15z"/>
<path d="M1277 563 c-14 -13 -6 -33 13 -33 13 0 20 7 20 20 0 19 -20 27 -33
13z"/>
<path d="M1226 372 c-3 -6 -1 -14 5 -17 15 -10 25 3 12 16 -7 7 -13 7 -17 1z"/>
<path d="M745 350 c-25 -28 -13 -63 30 -86 28 -15 35 -24 33 -44 -4 -33 -47
-42 -55 -11 -7 28 -25 27 -21 -1 5 -39 91 -37 103 2 9 27 -8 54 -50 79 -39 23
-45 45 -16 61 15 7 24 6 36 -6 20 -20 33 -11 15 11 -17 21 -53 19 -75 -5z"/>
<path d="M1127 324 c-10 -13 -13 -24 -8 -24 6 0 11 -26 13 -57 3 -56 4 -58 33
-60 17 -1 23 0 15 4 -23 9 -30 25 -30 71 0 35 3 42 20 42 11 0 20 5 20 10 0 6
-9 10 -19 10 -11 0 -21 6 -23 14 -2 10 -8 7 -21 -10z"/>
<path d="M886 304 c-19 -18 -22 -94 -4 -112 19 -19 88 -13 88 9 0 5 -11 4 -25
-3 -29 -13 -55 3 -55 33 0 15 8 19 40 19 35 0 40 3 40 23 0 45 -52 64 -84 31z
m52 -6 c21 -21 13 -38 -18 -38 -31 0 -39 17 -18 38 15 15 21 15 36 0z"/>
<path d="M1014 295 c-19 -29 -14 -92 8 -107 20 -13 71 -5 76 12 5 13 3 13 -11
2 -39 -33 -79 24 -58 81 12 31 26 34 39 11 5 -10 15 -14 21 -10 9 6 9 11 0 22
-18 22 -57 17 -75 -11z"/>
<path d="M1210 310 c0 -5 5 -10 10 -10 6 0 10 -22 10 -50 0 -36 -5 -52 -17
-59 -14 -8 -10 -10 22 -10 22 0 34 3 28 6 -9 3 -13 27 -13 69 0 57 -2 64 -20
64 -11 0 -20 -4 -20 -10z"/>
<path d="M1307 302 c-23 -25 -22 -85 1 -105 22 -20 63 -22 80 -5 16 16 16 100
0 116 -18 18 -63 14 -81 -6z m62 -6 c18 -21 10 -87 -12 -100 -38 -23 -65 64
-31 98 19 20 28 20 43 2z"/>
<path d="M1438 308 c7 -7 12 -33 12 -58 0 -25 -5 -51 -12 -58 -9 -9 -5 -12 21
-12 28 0 32 2 21 15 -6 8 -11 34 -10 57 4 63 2 68 -22 68 -17 0 -19 -3 -10
-12z"/>
<path d="M1485 311 c-3 -5 5 -11 17 -13 20 -3 23 -9 26 -60 3 -52 5 -58 24
-58 17 0 19 3 10 12 -7 7 -12 33 -12 58 0 25 -5 51 -12 58 -14 14 -44 16 -53
3z"/>
<path d="M1668 308 c7 -7 12 -33 12 -58 0 -25 -5 -51 -12 -58 -9 -9 -5 -12 21
-12 28 0 31 2 22 14 -7 8 -11 34 -9 58 3 38 6 43 28 43 23 0 25 -4 28 -57 3
-51 6 -58 24 -58 15 0 18 3 10 13 -6 7 -12 34 -14 61 -4 57 -25 79 -58 58 -12
-7 -20 -8 -20 -2 0 5 -10 10 -22 10 -17 0 -19 -3 -10 -12z"/>
<path d="M5562 3668 c-9 -29 -10 -44 -3 -46 8 -3 11 -397 11 -1343 0 -1184 -2
-1339 -15 -1339 -20 0 -19 -11 3 -49 l17 -31 1428 0 1427 0 0 1425 0 1425
-1428 0 -1427 0 -13 -42z m2838 -143 l0 -155 -421 0 c-336 0 -419 3 -412 13 6
6 20 41 32 76 12 36 27 73 32 83 8 15 6 18 -11 18 -12 0 -18 -4 -15 -10 7 -11
-15 -90 -24 -90 -10 0 -32 80 -26 91 4 5 -5 9 -19 9 l-25 0 30 -65 c34 -77 35
-79 9 -105 -20 -20 -33 -20 -985 -20 l-965 0 0 155 0 155 1400 0 1400 0 0
-155z m0 -360 l0 -175 -1400 0 -1400 0 0 175 0 175 1400 0 1400 0 0 -175z m0
-380 l0 -175 -1397 2 -1398 3 -3 160 c-1 87 0 165 2 172 4 11 271 13 1401 13
l1395 0 0 -175z m0 -375 l0 -170 -1400 0 -1400 0 0 170 0 170 1400 0 1400 0 0
-170z m0 -485 l0 -275 -1397 2 -1398 3 -3 273 -2 272 1400 0 1400 0 0 -275z
m0 -480 l0 -175 -1400 0 -1400 0 0 175 0 175 1400 0 1400 0 0 -175z m0 -375
l0 -170 -1400 0 -1400 0 0 170 0 170 1400 0 1400 0 0 -170z"/>
<path d="M5928 3613 c6 -2 12 -17 12 -31 0 -24 -4 -27 -37 -27 -35 0 -39 -3
-47 -37 -15 -62 22 -116 63 -91 11 7 21 7 33 -1 21 -13 36 0 20 16 -7 7 -12
44 -12 95 0 80 -1 83 -22 82 -13 0 -17 -3 -10 -6z m1 -77 c7 -8 11 -32 9 -53
-3 -33 -6 -38 -28 -38 -22 0 -25 5 -28 39 -2 21 -1 44 2 52 7 18 30 18 45 0z"/>
<path d="M6078 3612 c13 -9 27 -62 17 -62 -4 0 -15 4 -25 10 -13 7 -24 5 -40
-8 -26 -21 -33 -90 -11 -116 16 -19 52 -21 69 -4 9 9 12 9 12 0 0 -7 10 -12
22 -12 17 0 19 3 10 12 -8 8 -12 45 -12 100 l0 88 -27 0 c-19 0 -24 -3 -15 -8z
m9 -89 c15 -43 2 -78 -27 -78 -22 0 -25 5 -28 38 -5 63 37 93 55 40z"/>
<path d="M6872 3608 c-7 -7 -12 -20 -12 -29 0 -10 -6 -20 -12 -22 -10 -4 -10
-6 0 -6 15 -1 17 -111 2 -111 -5 0 -10 -4 -10 -10 0 -5 16 -10 37 -10 34 0 35
1 20 18 -24 26 -24 112 0 112 15 0 15 1 -2 14 -11 8 -16 19 -12 30 7 18 37 22
37 5 0 -5 5 -7 10 -4 6 4 8 11 5 16 -9 13 -49 11 -63 -3z"/>
<path d="M8037 3614 c-8 -8 1 -24 14 -24 5 0 9 7 9 15 0 15 -12 20 -23 9z"/>
<path d="M5742 3593 c-5 -10 -19 -48 -32 -85 -13 -38 -27 -68 -32 -68 -4 0 -8
-4 -8 -10 0 -5 14 -10 30 -10 27 0 29 2 19 19 -19 29 -6 46 32 45 31 -1 34 -4
33 -33 -2 -28 1 -31 27 -31 16 0 29 5 29 10 0 6 -3 10 -8 10 -4 0 -20 38 -36
85 -16 47 -33 85 -37 85 -5 0 -12 -8 -17 -17z m26 -60 c10 -31 10 -33 -14 -33
-27 0 -29 6 -14 46 12 31 13 30 28 -13z"/>
<path d="M7003 3595 c21 -21 21 -134 -1 -158 -15 -17 -13 -18 53 -15 64 3 70
5 73 26 2 12 -1 22 -7 22 -6 0 -11 -7 -11 -15 0 -10 -11 -15 -35 -15 -33 0
-35 2 -35 35 0 32 2 35 30 35 17 0 30 5 30 10 0 6 -13 10 -30 10 -28 0 -30 3
-30 35 0 30 3 35 24 35 13 0 30 -10 39 -22 l16 -23 0 28 c1 27 0 27 -65 27
-58 0 -64 -2 -51 -15z"/>
<path d="M7734 3594 c23 -22 22 -131 -1 -156 -15 -17 -14 -18 28 -18 39 1 42
2 27 14 -10 7 -18 25 -18 40 0 22 4 26 28 26 35 0 52 16 52 51 0 42 -24 59
-81 59 -46 0 -49 -1 -35 -16z m80 -10 c9 -8 16 -20 16 -25 0 -23 -22 -49 -40
-49 -17 0 -20 7 -20 45 0 49 15 59 44 29z"/>
<path d="M7318 3570 c-10 -11 -13 -20 -8 -20 6 0 10 -22 10 -49 0 -62 7 -81
31 -81 23 0 25 15 4 24 -23 8 -21 103 3 109 15 4 15 5 0 6 -9 0 -18 8 -20 16
-2 13 -6 12 -20 -5z"/>
<path d="M8268 3570 c-10 -11 -14 -20 -8 -20 5 0 10 -28 12 -62 3 -57 5 -63
26 -66 25 -4 30 13 7 22 -23 8 -21 103 3 109 15 4 15 5 0 6 -9 0 -18 8 -20 16
-2 13 -6 12 -20 -5z"/>
<path d="M6302 3554 c-29 -20 -31 -93 -4 -117 23 -21 56 -22 73 -1 11 13 9 14
-14 9 -29 -8 -57 8 -57 31 0 10 13 14 40 14 36 0 40 3 40 24 0 21 -31 56 -50
56 -3 0 -16 -7 -28 -16z m52 -20 c9 -22 -1 -34 -30 -34 -25 0 -28 7 -18 34 8
21 40 21 48 0z"/>
<path d="M6428 3559 c-29 -16 -21 -48 17 -70 39 -23 42 -31 20 -49 -13 -10
-19 -9 -36 6 -21 19 -21 19 -18 -1 6 -27 58 -33 76 -9 21 28 16 43 -22 65 -19
12 -35 27 -35 35 0 17 37 19 43 2 2 -7 8 -9 13 -5 5 5 1 15 -10 23 -23 16 -25
17 -48 3z"/>
<path d="M6542 3559 c-34 -13 -28 -46 13 -70 39 -23 42 -31 19 -50 -14 -11
-18 -10 -30 6 -15 21 -30 14 -21 -10 8 -18 58 -20 75 -3 22 22 13 48 -23 69
-19 12 -35 27 -35 35 0 17 32 18 48 2 9 -9 12 -8 12 4 0 19 -28 28 -58 17z"/>
<path d="M6738 3563 c-38 -10 -47 -105 -13 -133 24 -20 69 -8 84 24 11 23 11
37 2 67 -7 22 -16 39 -21 39 -4 0 -14 2 -22 4 -7 2 -20 2 -30 -1z m50 -64 c2
-32 -2 -50 -13 -59 -24 -20 -45 5 -45 55 0 48 6 57 35 53 16 -2 21 -12 23 -49z"/>
<path d="M7909 3556 c-19 -9 -25 -21 -27 -58 -3 -51 14 -78 52 -78 32 0 56 30
56 71 0 58 -37 87 -81 65z m49 -18 c17 -17 15 -74 -4 -92 -24 -25 -54 -4 -54
39 0 18 3 40 6 49 7 19 35 21 52 4z"/>
<path d="M6170 3541 c9 -18 8 -64 -4 -98 -7 -21 -4 -23 25 -23 26 0 30 3 21
12 -15 15 -16 104 -2 113 6 4 17 2 24 -4 7 -6 16 -8 19 -4 16 16 4 22 -42 21
-43 -1 -49 -4 -41 -17z"/>
<path d="M7159 3547 c14 -14 15 -93 1 -102 -20 -12 -9 -25 22 -25 25 0 29 3
20 12 -17 17 -15 93 3 108 26 22 45 -5 45 -66 0 -48 2 -54 21 -54 16 0 19 3
11 13 -6 7 -12 37 -14 67 l-3 55 -59 2 c-44 1 -56 -1 -47 -10z"/>
<path d="M7408 3505 c3 -34 -1 -61 -8 -70 -11 -13 -7 -15 24 -15 37 0 48 13
20 24 -13 5 -15 15 -10 49 8 50 23 69 36 47 7 -12 12 -12 21 -3 18 18 -18 30
-42 14 -12 -7 -19 -7 -19 -1 0 5 -6 10 -12 10 -9 0 -12 -16 -10 -55z"/>
<path d="M8028 3548 c18 -18 15 -88 -5 -110 -15 -17 -14 -18 22 -18 30 0 36 3
27 12 -7 7 -12 38 -12 70 0 53 -2 58 -22 58 -17 0 -19 -3 -10 -12z"/>
<path d="M8110 3546 c16 -16 12 -87 -7 -108 -15 -17 -14 -18 22 -18 30 0 36 3
27 12 -19 19 -15 105 4 112 29 11 44 -13 44 -70 0 -49 2 -54 22 -54 17 0 19 3
10 12 -7 7 -12 32 -12 58 0 62 -7 69 -68 68 -36 -1 -49 -5 -42 -12z"/>
<path d="M6348 3248 c15 -15 17 -158 2 -158 -5 0 -10 -4 -10 -10 0 -5 17 -10
38 -10 33 1 35 2 20 14 -14 10 -18 28 -18 85 0 41 4 71 10 71 6 0 10 5 10 10
0 6 -14 10 -32 10 -25 0 -29 -3 -20 -12z"/>
<path d="M7148 3249 c15 -16 17 -159 2 -159 -5 0 -10 -4 -10 -10 0 -13 86 -13
111 0 24 13 25 57 2 82 -9 10 -11 18 -6 18 17 0 22 37 9 56 -8 11 -32 18 -67
21 -44 4 -52 3 -41 -8z m76 -12 c21 -15 15 -51 -10 -61 -23 -9 -34 2 -34 33 0
42 13 51 44 28z m16 -92 c20 -24 3 -55 -31 -55 -27 0 -29 3 -29 35 0 30 3 35
24 35 13 0 29 -7 36 -15z"/>
<path d="M6868 3213 c-46 -5 -63 -24 -53 -60 12 -43 10 -70 -5 -88 -35 -42 57
-77 94 -36 27 30 13 57 -37 68 -34 8 -38 11 -22 17 42 15 50 24 53 55 2 17 7
31 13 31 5 0 9 5 9 10 0 6 -3 9 -7 8 -5 -1 -25 -3 -45 -5z m10 -46 c3 -21 -1
-27 -17 -27 -25 0 -34 14 -26 41 10 29 39 20 43 -14z m18 -109 c7 -11 -21 -38
-40 -38 -22 0 -39 18 -33 34 7 19 62 22 73 4z"/>
<path d="M6439 3197 c14 -14 15 -107 1 -107 -5 0 -10 -4 -10 -10 0 -5 14 -10
32 -10 25 0 29 3 20 12 -18 18 -15 93 4 109 25 20 46 -15 42 -71 -2 -41 0 -45
22 -48 20 -3 23 -1 13 9 -18 18 -16 94 2 109 24 20 35 2 35 -61 0 -57 1 -59
27 -59 21 0 24 3 15 12 -7 7 -12 27 -12 44 0 53 -16 84 -44 84 -14 0 -28 -5
-31 -10 -5 -7 -11 -8 -18 -1 -18 14 -112 12 -98 -2z"/>
<path d="M6684 3199 c-3 -6 -1 -16 5 -22 8 -8 11 -6 11 6 0 10 8 17 20 17 15
0 20 -7 20 -25 0 -20 -5 -25 -24 -25 -32 0 -50 -24 -42 -55 5 -18 13 -25 30
-25 14 0 27 6 30 13 5 10 7 10 12 0 3 -7 11 -13 18 -13 15 0 10 108 -6 128
-13 15 -64 16 -74 1z m54 -81 c-4 -30 -48 -39 -48 -10 0 24 8 32 32 32 14 0
19 -6 16 -22z"/>
<path d="M6957 3192 c-21 -23 -22 -71 -1 -100 15 -22 38 -27 68 -16 26 10 18
22 -11 16 -18 -3 -30 1 -40 13 -21 30 -16 35 33 35 45 0 46 1 39 27 -11 46
-58 59 -88 25z m61 -20 c3 -17 -1 -22 -21 -22 -31 0 -38 9 -26 32 13 25 43 19
47 -10z"/>
<path d="M7315 3200 c-12 -19 6 -32 20 -14 7 11 19 15 29 11 27 -11 15 -41
-18 -47 -16 -3 -33 -12 -39 -21 -22 -35 19 -73 54 -51 11 7 20 8 24 2 3 -6 14
-10 23 -10 12 0 13 3 4 12 -7 7 -12 31 -12 54 0 62 -7 74 -45 74 -19 0 -37 -4
-40 -10z m65 -69 c0 -23 -14 -41 -31 -41 -19 0 -27 29 -12 43 10 10 43 8 43
-2z"/>
<path d="M7452 3198 c-20 -20 -14 -37 23 -60 38 -25 44 -42 18 -52 -11 -5 -22
-1 -30 10 -15 20 -28 12 -20 -11 8 -18 58 -20 75 -3 22 22 13 48 -23 69 -19
12 -35 25 -35 30 0 16 30 22 45 9 12 -10 15 -9 15 4 0 19 -50 22 -68 4z"/>
<path d="M7573 3198 c-44 -57 1 -148 62 -124 25 9 17 24 -11 18 -16 -3 -30 1
-35 9 -18 28 -9 39 31 39 43 0 50 13 30 51 -12 22 -62 26 -77 7z m56 -17 c12
-22 5 -31 -26 -31 -24 0 -27 7 -17 34 8 22 31 20 43 -3z"/>
<path d="M7030 2890 c0 -5 5 -12 10 -15 6 -3 10 -39 10 -80 0 -41 -4 -77 -10
-80 -19 -12 -10 -20 20 -20 17 0 30 3 30 8 0 4 -4 7 -10 7 -6 0 -10 36 -10 89
0 80 -2 89 -20 94 -11 3 -20 1 -20 -3z"/>
<path d="M6422 2881 c4 -13 18 -16 19 -4 0 4 -5 9 -11 12 -7 2 -11 -2 -8 -8z"/>
<path d="M7125 2881 c-6 -11 9 -23 19 -14 9 9 7 23 -3 23 -6 0 -12 -4 -16 -9z"/>
<path d="M5940 2866 c-20 -25 -7 -60 33 -85 38 -25 46 -48 25 -69 -17 -17 -24
-15 -47 9 -11 12 -21 16 -25 10 -11 -16 41 -44 69 -37 29 7 49 39 40 65 -3 9
-23 28 -46 40 -30 17 -39 28 -37 44 4 27 45 36 54 13 3 -9 10 -14 15 -11 4 3
6 12 2 20 -7 19 -67 20 -83 1z"/>
<path d="M6895 2803 c-15 -43 -32 -82 -36 -87 -14 -16 -10 -21 16 -21 26 0 34
10 14 17 -9 3 -9 10 0 26 24 44 91 21 76 -27 -3 -12 2 -16 20 -16 14 0 25 0
25 0 0 0 -15 40 -33 89 -19 50 -38 91 -44 93 -5 2 -23 -31 -38 -74z m50 0 c6
-31 5 -33 -20 -33 -22 0 -26 3 -20 18 4 9 10 27 13 40 6 29 18 18 27 -25z"/>
<path d="M6327 2844 c-10 -13 -13 -24 -8 -24 6 0 11 -25 13 -56 2 -40 8 -60
20 -68 9 -5 21 -7 25 -2 4 4 0 12 -10 17 -23 13 -25 109 -2 109 8 0 15 5 15
10 0 6 -6 10 -14 10 -8 0 -16 6 -18 14 -2 10 -8 7 -21 -10z"/>
<path d="M8027 2847 c-10 -15 -13 -27 -7 -27 6 0 10 -25 10 -59 0 -46 4 -60
17 -65 9 -4 21 -2 27 4 7 7 5 10 -7 10 -14 0 -17 10 -17 55 0 42 3 55 15 55 8
0 15 5 15 10 0 6 -6 10 -14 10 -8 0 -16 8 -18 17 -2 14 -7 12 -21 -10z"/>
<path d="M6086 2824 c-53 -53 -7 -153 58 -128 26 10 18 22 -10 16 -16 -3 -30
1 -35 9 -18 28 -9 39 31 39 45 0 52 18 24 58 -18 26 -46 28 -68 6z m54 -24 c0
-15 -7 -20 -25 -20 -24 0 -34 18 -18 33 15 15 43 7 43 -13z"/>
<path d="M6217 2822 c-26 -28 -22 -97 5 -116 28 -20 39 -20 64 -1 18 14 17 14
-12 9 -39 -7 -56 13 -52 63 2 31 7 39 26 41 12 2 22 -1 22 -7 0 -6 5 -11 10
-11 16 0 11 27 -6 34 -26 10 -40 7 -57 -12z"/>
<path d="M6400 2830 c0 -5 5 -10 11 -10 8 0 10 -21 7 -62 -3 -58 -2 -63 17
-63 19 0 21 5 17 60 -2 33 -5 66 -7 73 -5 14 -45 17 -45 2z"/>
<path d="M6507 2822 c-24 -26 -22 -87 3 -112 24 -24 38 -25 68 -4 17 12 22 25
22 58 0 67 -55 101 -93 58z m71 -36 c7 -63 -21 -101 -53 -70 -15 16 -20 60 -9
89 4 10 16 15 33 13 20 -2 27 -9 29 -32z"/>
<path d="M6630 2831 c0 -6 5 -13 10 -16 6 -3 10 -26 10 -50 0 -24 -4 -47 -10
-50 -19 -12 -10 -20 20 -20 17 0 30 3 30 8 0 4 -4 7 -10 7 -11 0 -14 69 -4 94
3 9 14 16 24 16 22 0 30 -19 30 -75 0 -34 4 -44 20 -48 11 -3 20 -1 20 4 0 5
-4 9 -10 9 -5 0 -10 25 -12 56 -3 65 -23 88 -58 67 -12 -8 -21 -9 -25 -3 -8
13 -35 13 -35 1z"/>
<path d="M7110 2830 c0 -5 5 -10 10 -10 6 0 10 -25 10 -55 0 -30 -4 -55 -10
-55 -5 0 -10 -3 -10 -7 0 -5 14 -8 30 -8 17 0 30 3 30 8 0 4 -4 7 -10 7 -6 0
-10 28 -10 65 0 58 -2 65 -20 65 -11 0 -20 -4 -20 -10z"/>
<path d="M7205 2820 c-12 -13 -14 -25 -9 -42 12 -34 11 -71 -3 -86 -17 -18
-16 -27 3 -46 20 -20 53 -20 82 0 41 28 22 74 -31 74 -34 0 -33 23 1 28 26 4
45 34 36 56 -4 11 -1 16 10 16 9 0 16 4 16 9 0 18 -88 10 -105 -9z m55 -30 c0
-23 -4 -30 -20 -30 -16 0 -20 7 -20 30 0 23 4 30 20 30 16 0 20 -7 20 -30z
m15 -115 c0 -15 -8 -21 -29 -23 -37 -4 -54 11 -36 33 19 23 65 16 65 -10z"/>
<path d="M7320 2830 c0 -5 5 -10 10 -10 6 0 10 -25 10 -55 0 -30 -4 -55 -10
-55 -5 0 -10 -4 -10 -9 0 -4 13 -8 30 -7 34 1 34 0 18 25 -18 29 1 96 27 96
17 0 20 -8 23 -56 2 -45 7 -58 21 -62 16 -4 17 1 13 47 -7 80 -44 120 -80 84
-9 -9 -12 -9 -12 0 0 7 -9 12 -20 12 -11 0 -20 -4 -20 -10z"/>
<path d="M7495 2768 c0 -66 2 -73 20 -73 18 0 20 7 20 60 0 53 2 60 20 60 17
0 20 -8 23 -56 2 -47 6 -58 22 -62 22 -6 26 3 9 20 -16 16 -7 84 14 97 24 15
37 -6 37 -65 0 -38 4 -48 20 -52 11 -3 20 -1 20 4 0 5 -4 9 -10 9 -5 0 -10 25
-12 56 -3 66 -23 88 -59 66 -16 -10 -24 -11 -35 -1 -11 9 -21 9 -39 1 -15 -7
-25 -8 -25 -2 0 6 -6 10 -12 10 -9 0 -13 -21 -13 -72z"/>
<path d="M7749 2830 c-21 -12 -32 -54 -24 -92 7 -32 40 -50 74 -41 32 8 25 21
-11 19 -27 -1 -34 3 -36 22 -3 20 1 22 37 22 46 0 54 18 25 58 -16 23 -39 27
-65 12z m49 -33 c3 -12 -3 -17 -22 -17 -25 0 -35 18 -19 34 12 12 38 2 41 -17z"/>
<path d="M7850 2830 c0 -5 5 -10 10 -10 6 0 10 -25 10 -55 0 -30 -4 -55 -10
-55 -5 0 -10 -4 -10 -9 0 -4 13 -8 30 -7 30 1 38 10 20 21 -15 9 -12 68 4 90
25 34 46 12 46 -49 0 -44 3 -55 19 -59 16 -4 18 0 13 42 -9 86 -34 117 -73 93
-11 -7 -20 -8 -24 -2 -8 13 -35 13 -35 0z"/>
<path d="M6306 2513 c-11 -11 -6 -23 9 -23 8 0 15 4 15 9 0 13 -16 22 -24 14z"/>
<path d="M6368 2508 c7 -7 12 -42 12 -88 0 -46 -5 -81 -12 -88 -9 -9 -3 -12
28 -12 31 1 36 3 22 11 -15 8 -18 25 -18 99 0 86 -1 90 -22 90 -17 0 -19 -3
-10 -12z"/>
<path d="M6830 2501 c6 -12 10 -53 8 -94 -3 -65 -5 -72 -24 -75 -23 -3 -23 -2
-65 116 -12 34 -25 62 -29 62 -7 0 -60 -139 -60 -159 0 -5 -8 -15 -17 -20 -15
-9 -12 -10 16 -11 27 0 31 3 22 14 -19 23 -2 46 34 46 26 0 35 -5 40 -21 5
-14 2 -25 -6 -30 -9 -5 15 -9 61 -9 41 0 70 4 63 8 -8 5 -13 41 -15 97 -3 78
-5 90 -21 93 -16 3 -17 1 -7 -17z m-94 -98 c-2 -3 -13 -3 -23 -1 -17 3 -18 7
-10 38 l10 35 14 -34 c8 -18 12 -35 9 -38z"/>
<path d="M6915 2510 c-4 -6 -3 -16 3 -22 6 -6 12 -6 17 2 4 6 3 16 -3 22 -6 6
-12 6 -17 -2z"/>
<path d="M6140 2500 c0 -5 5 -10 10 -10 15 0 13 -143 -2 -158 -9 -9 -3 -12 28
-12 31 1 36 3 22 11 -11 6 -18 22 -18 39 0 27 3 30 30 30 17 0 30 5 30 10 0 6
-13 10 -30 10 -28 0 -30 3 -30 35 0 32 2 35 30 35 17 0 33 -7 39 -17 9 -15 10
-14 11 10 0 26 -1 27 -60 27 -33 0 -60 -4 -60 -10z"/>
<path d="M7814 2473 c-8 -19 -6 -105 2 -135 4 -12 15 -18 32 -17 16 0 21 3 12
6 -23 9 -30 24 -30 69 0 34 4 43 23 49 l22 8 -23 4 c-15 3 -22 10 -18 19 8 20
-10 17 -20 -3z"/>
<path d="M7076 2463 c-4 -4 -22 -6 -41 -5 -29 2 -37 -2 -46 -21 -7 -16 -8 -31
-1 -43 12 -24 9 -58 -7 -78 -7 -8 -10 -24 -6 -36 9 -29 89 -29 105 0 19 35 3
60 -36 60 -24 0 -34 5 -34 15 0 8 8 15 18 15 26 0 42 20 42 53 0 16 4 26 10
22 6 -3 10 1 10 9 0 18 -3 20 -14 9z m-31 -49 c0 -19 -5 -29 -15 -29 -16 0
-25 28 -16 51 10 25 31 10 31 -22z m20 -104 c10 -16 -14 -40 -41 -40 -26 0
-38 14 -30 35 6 17 62 20 71 5z"/>
<path d="M6288 2454 c7 -4 12 -27 12 -64 0 -37 -5 -60 -12 -63 -7 -3 5 -6 27
-6 22 0 35 3 28 7 -6 4 -13 34 -15 67 -3 56 -5 60 -28 62 -14 1 -19 0 -12 -3z"/>
<path d="M6473 2452 c-30 -19 -36 -87 -10 -119 12 -16 63 -17 73 -1 5 8 2 9
-10 5 -24 -9 -56 10 -56 33 0 17 7 20 40 20 33 0 40 3 40 19 0 38 -45 63 -77
43z m47 -21 c15 -28 13 -31 -20 -31 -31 0 -39 17 -18 38 17 17 26 15 38 -7z"/>
<path d="M6908 2449 c19 -20 16 -106 -5 -118 -14 -8 -10 -10 22 -11 22 0 35 4
28 8 -6 4 -13 34 -15 67 -3 51 -6 60 -23 63 -16 3 -18 1 -7 -9z"/>
<path d="M7118 2448 c16 -16 15 -101 0 -116 -9 -9 -4 -12 22 -12 26 0 31 3 22
12 -14 14 -16 76 -3 96 5 8 17 12 27 10 16 -3 20 -14 22 -61 3 -51 5 -57 24
-57 17 0 19 3 10 12 -7 7 -12 36 -12 64 0 59 -3 61 -79 62 -33 1 -41 -2 -33
-10z"/>
<path d="M7279 2447 c15 -15 14 -100 -1 -115 -9 -9 -4 -12 22 -12 26 0 31 3
22 12 -17 17 -15 84 4 103 26 26 44 1 44 -61 0 -48 2 -54 21 -54 17 0 19 3 10
14 -7 8 -11 34 -9 58 2 33 7 44 22 46 26 5 36 -15 36 -70 0 -43 2 -48 23 -47
12 0 16 3 10 6 -8 3 -13 25 -13 58 0 65 -17 84 -61 68 -16 -6 -31 -8 -34 -3
-3 4 -28 8 -56 8 -36 0 -48 -3 -40 -11z"/>
<path d="M7527 2442 c-23 -25 -22 -85 1 -105 21 -19 67 -22 78 -6 5 8 0 10
-17 6 -29 -7 -44 1 -53 31 -7 21 -4 22 39 22 43 0 46 1 39 23 -15 50 -56 63
-87 29z m61 -20 c3 -19 -1 -22 -27 -22 -34 0 -36 2 -20 31 13 26 43 20 47 -9z"/>
<path d="M7648 2448 c16 -16 15 -101 0 -116 -9 -9 -4 -12 22 -12 26 0 31 3 22
12 -14 14 -16 76 -3 96 5 8 17 12 27 10 16 -3 20 -14 22 -61 3 -51 5 -57 24
-57 17 0 19 3 10 12 -7 7 -12 36 -12 64 0 59 -3 61 -79 62 -33 1 -41 -2 -33
-10z"/>
<path d="M6912 2108 c6 -18 28 -21 28 -4 0 9 -7 16 -16 16 -9 0 -14 -5 -12
-12z"/>
<path d="M6915 1971 c-7 -12 12 -24 25 -16 11 7 4 25 -10 25 -5 0 -11 -4 -15
-9z"/>
<path d="M7207 1943 c-12 -11 -8 -23 8 -23 8 0 15 7 15 15 0 16 -12 20 -23 8z"/>
<path d="M6917 1833 c-12 -11 -8 -23 8 -23 8 0 15 7 15 15 0 16 -12 20 -23 8z"/>
<path d="M6812 1548 c-6 -6 -12 -20 -12 -29 0 -10 -6 -20 -12 -23 -10 -5 -10
-7 0 -12 16 -7 16 -96 0 -112 -9 -9 -3 -12 28 -12 31 1 36 3 22 11 -24 13 -26
109 -3 109 8 0 15 5 15 10 0 6 -7 10 -15 10 -9 0 -15 9 -15 21 0 18 4 20 26
15 19 -5 25 -3 22 6 -6 18 -40 22 -56 6z"/>
<path d="M7480 1550 c0 -5 4 -10 9 -10 16 0 11 -147 -5 -160 -20 -18 -41 -5
-49 29 -8 37 9 71 36 71 11 0 17 5 14 10 -11 17 -43 11 -59 -12 -34 -49 -2
-141 42 -122 9 3 33 6 52 5 29 -1 32 1 18 10 -15 8 -18 25 -18 99 0 83 -1 90
-20 90 -11 0 -20 -4 -20 -10z"/>
<path d="M6134 1539 c-49 -18 -42 -71 12 -96 28 -14 34 -22 32 -43 -4 -33 -47
-42 -55 -11 -7 27 -23 27 -23 1 0 -45 82 -48 102 -4 8 18 7 29 -6 49 -9 14
-22 25 -30 25 -20 0 -49 37 -43 55 8 19 46 20 53 0 8 -20 26 -19 22 1 -4 22
-37 34 -64 23z"/>
<path d="M6250 1541 c0 -6 5 -13 10 -16 6 -3 10 1 10 9 0 9 -4 16 -10 16 -5 0
-10 -4 -10 -9z"/>
<path d="M6948 1533 c16 -6 17 -144 0 -161 -9 -9 -3 -12 28 -12 31 1 36 3 22
11 -12 6 -18 22 -18 45 l0 35 43 -3 c38 -3 42 -6 45 -33 3 -19 -2 -33 -14 -42
-16 -11 -13 -13 22 -12 21 0 33 3 27 6 -9 3 -13 30 -13 83 0 53 4 80 13 83 6
3 -6 6 -27 6 -35 1 -38 -1 -22 -12 11 -8 17 -23 14 -38 -3 -21 -9 -24 -45 -27
-42 -3 -43 -2 -43 27 0 18 7 34 18 40 13 8 9 10 -23 10 -22 0 -34 -3 -27 -6z"/>
<path d="M6238 1488 c16 -16 16 -115 0 -121 -7 -3 5 -6 27 -6 32 0 36 2 23 10
-14 8 -18 23 -18 69 0 55 -2 60 -22 60 -17 0 -19 -3 -10 -12z"/>
<path d="M6321 1478 c0 -13 3 -17 6 -10 5 12 53 18 53 6 0 -3 -13 -24 -28 -47
-48 -70 -48 -67 6 -67 37 0 51 4 56 16 9 24 -3 32 -15 11 -6 -9 -21 -17 -34
-17 l-24 0 34 58 c19 31 35 60 35 65 0 4 -20 7 -45 7 -40 0 -45 -2 -44 -22z"/>
<path d="M6467 1487 c-10 -6 -20 -29 -23 -49 -5 -30 -2 -41 19 -62 30 -30 37
-31 63 -10 18 15 18 15 -4 9 -27 -8 -52 10 -52 36 0 15 8 19 40 19 44 0 50 11
24 48 -17 25 -42 28 -67 9z m53 -28 c0 -14 -7 -19 -25 -19 -26 0 -33 18 -14
37 16 16 39 5 39 -18z"/>
<path d="M6660 1480 c-38 -38 -14 -130 33 -130 7 0 23 7 35 16 17 12 22 25 22
59 0 69 -47 98 -90 55z m59 -4 c7 -8 11 -34 9 -58 -2 -33 -7 -44 -22 -47 -41
-7 -62 65 -29 101 19 22 27 22 42 4z"/>
<path d="M7157 1482 c-24 -26 -22 -87 3 -112 24 -24 40 -25 66 -5 18 15 17 16
-13 10 -25 -5 -34 -2 -43 15 -15 28 -5 40 36 40 27 0 34 4 34 19 0 24 -26 51
-49 51 -10 0 -25 -8 -34 -18z m63 -34 c0 -4 -13 -8 -30 -8 -34 0 -38 11 -13
35 16 16 17 16 30 -1 7 -10 13 -21 13 -26z"/>
<path d="M7293 1493 c-13 -5 -18 -33 -7 -33 4 0 12 8 19 17 11 15 15 15 29 4
26 -22 19 -37 -21 -47 -31 -7 -39 -14 -41 -36 -4 -37 31 -57 59 -32 11 10 19
12 19 6 0 -7 10 -12 23 -11 12 0 16 3 10 6 -8 3 -13 24 -13 57 0 29 -5 57 -12
64 -12 12 -43 15 -65 5z m57 -81 c0 -21 -18 -42 -37 -42 -20 0 -27 28 -13 45
18 21 50 19 50 -3z"/>
<path d="M7588 1488 c-30 -23 -27 -102 5 -122 23 -16 67 -11 67 6 0 5 -9 6
-20 3 -25 -8 -50 10 -50 36 0 15 8 19 40 19 33 0 40 3 40 19 0 42 -49 64 -82
39z m46 -14 c24 -23 19 -34 -14 -34 -31 0 -39 17 -18 38 15 15 13 15 32 -4z"/>
<path d="M7698 1488 c16 -16 16 -115 0 -121 -7 -3 5 -5 27 -5 22 0 34 2 28 5
-8 3 -13 24 -13 53 0 50 15 74 31 49 6 -10 11 -11 20 -2 14 14 3 33 -20 33 -9
0 -22 -5 -28 -11 -8 -8 -13 -8 -17 0 -4 6 -15 11 -24 11 -12 0 -13 -3 -4 -12z"/>
<path d="M7826 1484 c-20 -19 -6 -50 30 -66 13 -6 24 -17 24 -25 0 -21 -31
-28 -45 -10 -7 9 -15 14 -18 10 -23 -22 25 -50 59 -34 38 17 32 55 -13 81 -34
20 -35 22 -19 38 16 16 18 16 30 0 7 -10 16 -15 19 -11 10 10 -13 33 -34 33
-9 0 -25 -7 -33 -16z"/>
<path d="M6955 1170 c-4 -6 -3 -16 3 -22 6 -6 12 -6 17 2 4 6 3 16 -3 22 -6 6
-12 6 -17 -2z"/>
<path d="M6158 1079 c3 -60 0 -84 -10 -90 -8 -5 10 -9 45 -9 48 0 62 4 82 25
32 31 34 91 4 129 -17 22 -28 26 -72 26 l-52 0 3 -81z m96 49 c35 -50 9 -138
-40 -138 -23 0 -24 2 -24 80 0 78 1 80 24 80 14 0 32 -10 40 -22z"/>
<path d="M6768 1153 c16 -6 17 -144 0 -161 -9 -9 1 -12 44 -12 49 0 59 3 77
26 13 16 21 41 21 64 0 23 -8 48 -21 64 -18 23 -27 26 -77 25 -31 0 -51 -3
-44 -6z m94 -20 c12 -11 18 -30 18 -61 0 -52 -21 -82 -57 -82 -22 0 -23 3 -23
80 0 75 1 80 22 80 12 0 30 -7 40 -17z"/>
<path d="M6476 1128 c-13 -14 -15 -23 -8 -26 7 -2 12 -27 12 -62 0 -45 4 -59
17 -64 9 -4 21 -2 27 4 7 7 5 10 -7 10 -14 0 -17 10 -17 55 0 42 3 55 15 55 8
0 15 5 15 10 0 6 -6 10 -14 10 -8 0 -16 7 -18 15 -2 13 -7 11 -22 -7z"/>
<path d="M7410 1135 c0 -8 -4 -15 -9 -15 -8 0 -5 -67 5 -116 5 -25 33 -39 48
-24 7 7 5 10 -7 10 -14 0 -17 10 -17 55 0 42 3 55 15 55 8 0 15 5 15 10 0 6
-7 10 -15 10 -8 0 -15 7 -15 15 0 8 -4 15 -10 15 -5 0 -10 -7 -10 -15z"/>
<path d="M6343 1105 c-8 -24 4 -30 22 -11 19 19 35 13 35 -13 0 -10 -12 -20
-32 -26 -25 -8 -34 -16 -36 -37 -4 -31 25 -53 48 -38 8 5 24 7 35 4 20 -5 21
-2 15 53 -3 32 -9 64 -13 71 -12 17 -66 15 -74 -3z m55 -82 c-3 -31 -34 -44
-44 -19 -7 19 12 46 33 46 10 0 13 -9 11 -27z"/>
<path d="M6571 1106 c-7 -8 -8 -17 -3 -20 6 -3 15 1 22 9 15 18 40 9 40 -15 0
-12 -10 -20 -34 -24 -36 -7 -50 -27 -41 -56 7 -23 32 -32 54 -20 10 5 29 6 42
3 20 -5 22 -3 12 8 -7 7 -13 34 -13 59 0 25 -5 51 -12 58 -16 16 -53 15 -67
-2z m59 -74 c0 -21 -18 -42 -37 -42 -17 0 -17 47 0 53 24 10 37 7 37 -11z"/>
<path d="M6940 1111 c0 -6 5 -11 10 -11 6 0 10 -22 10 -50 0 -36 -5 -52 -17
-59 -14 -8 -10 -10 22 -11 22 0 35 4 28 8 -6 4 -13 34 -15 67 -2 48 -7 60 -20
63 -10 2 -18 -1 -18 -7z"/>
<path d="M7020 1110 c0 -5 5 -10 10 -10 14 0 12 -94 -2 -108 -9 -9 -4 -12 23
-11 18 0 28 3 22 6 -16 6 -18 99 -3 108 6 4 17 2 25 -5 15 -12 31 3 20 20 -9
14 -42 12 -49 -2 -5 -10 -7 -10 -12 0 -7 14 -34 16 -34 2z"/>
<path d="M7157 1102 c-20 -22 -22 -81 -4 -106 15 -21 62 -25 80 -7 9 9 4 10
-20 5 -25 -5 -33 -2 -43 15 -15 29 -5 41 36 41 29 0 34 3 34 25 0 42 -54 59
-83 27z m53 -6 c0 -2 3 -11 6 -20 5 -13 -1 -16 -25 -16 -33 0 -34 1 -25 24 5
14 44 24 44 12z"/>
<path d="M7286 1098 c-29 -42 -16 -107 24 -120 19 -7 60 8 60 22 0 7 -7 6 -19
-1 -25 -16 -49 -5 -57 26 -14 56 19 100 51 68 20 -19 33 -9 15 12 -18 22 -56
18 -74 -7z"/>
<path d="M7496 1104 c-21 -20 -21 -97 -1 -114 19 -16 61 -16 80 0 22 18 20 93
-3 113 -23 21 -56 22 -76 1z m58 -10 c19 -18 21 -75 4 -92 -31 -31 -58 -8 -58
48 0 24 21 60 35 60 2 0 11 -7 19 -16z"/>
<path d="M7620 1111 c0 -6 5 -13 10 -16 18 -11 12 -93 -7 -104 -14 -8 -10 -10
22 -10 22 0 34 3 28 6 -15 5 -17 81 -4 102 8 12 12 12 24 2 17 -13 33 1 22 19
-9 14 -42 12 -49 -2 -5 -10 -7 -10 -12 0 -7 14 -34 16 -34 3z"/>
<path d="M7730 1110 c0 -5 3 -10 8 -10 4 0 18 -27 31 -61 19 -49 21 -66 12
-85 -6 -13 -17 -24 -26 -24 -8 0 -15 -4 -15 -10 0 -14 12 -12 37 5 12 9 31 43
43 82 12 38 29 78 36 91 14 21 13 22 -11 22 -21 0 -24 -4 -20 -23 3 -12 0 -37
-8 -56 l-14 -33 -16 41 c-9 22 -14 47 -11 56 5 11 -1 15 -20 15 -14 0 -26 -4
-26 -10z"/>
<path d="M5490 3497 c0 -1 -9 -26 -19 -54 -16 -44 -17 -53 -5 -57 8 -3 17 0
19 7 15 42 35 100 35 103 0 2 -7 4 -15 4 -8 0 -15 -1 -15 -3z"/>
<path d="M5395 3258 c-15 -42 -35 -101 -35 -104 0 -2 6 -4 14 -4 15 0 58 99
49 113 -7 11 -23 8 -28 -5z"/>
<path d="M2828 3018 c-33 -36 -36 -52 -8 -45 20 5 20 0 20 -570 0 -526 -1
-577 -17 -588 -15 -11 -15 -14 4 -34 l20 -21 1083 0 c972 0 1085 -1 1101 -16
24 -22 35 0 15 31 -13 20 -16 62 -16 259 0 166 4 243 12 262 10 22 10 28 0 32
-9 3 -12 86 -12 363 l0 359 -1087 0 -1088 -1 -27 -31z m2170 -190 l2 -188
-1065 0 -1065 0 0 183 c0 101 3 187 7 190 3 4 482 6 1062 5 l1056 -3 3 -187z
m2 -378 l0 -160 -1065 0 -1065 0 0 160 0 160 1065 0 1065 0 0 -160z m0 -425
l0 -235 -1065 0 -1065 0 0 228 c0 126 3 232 7 235 3 4 483 7 1065 7 l1058 0 0
-235z"/>
<path d="M3399 2909 c-11 -11 -18 -27 -15 -36 3 -8 6 -18 6 -22 0 -4 16 -16
35 -27 39 -21 50 -40 34 -60 -17 -21 -49 -17 -58 8 -4 13 -10 17 -14 11 -21
-33 30 -60 73 -40 48 23 37 72 -24 102 -12 6 -22 22 -24 38 -3 22 1 27 19 27
12 0 28 -8 35 -17 12 -17 13 -17 14 -1 0 17 -28 38 -49 38 -6 0 -20 -9 -32
-21z"/>
<path d="M3532 2919 c2 -6 8 -10 13 -10 5 0 11 4 13 10 2 6 -4 11 -13 11 -9 0
-15 -5 -13 -11z"/>
<path d="M4045 2893 c-6 -10 -9 -46 -7 -81 3 -49 8 -64 23 -73 11 -5 25 -7 31
-3 7 5 4 10 -10 15 -19 7 -22 16 -22 59 0 38 4 50 15 50 8 0 15 5 15 10 0 6
-6 10 -14 10 -8 0 -16 7 -18 15 -2 13 -5 13 -13 -2z"/>
<path d="M3686 2882 c-3 -5 -17 -7 -31 -4 -14 2 -32 -1 -40 -8 -16 -14 -20
-56 -6 -64 10 -7 5 -39 -11 -73 -22 -45 20 -75 76 -54 23 9 27 16 24 43 -3 29
-7 34 -36 38 -35 5 -44 23 -15 29 30 5 43 22 43 53 0 17 4 27 10 23 6 -3 10
-2 10 4 0 14 -18 23 -24 13z m-21 -47 c0 -23 -4 -30 -20 -30 -21 0 -31 25 -21
51 11 28 41 12 41 -21z m20 -105 c10 -16 -14 -40 -41 -40 -26 0 -38 14 -30 35
6 17 62 20 71 5z"/>
<path d="M3518 2869 c6 -7 12 -36 12 -65 0 -33 -5 -54 -12 -57 -7 -3 4 -6 25
-6 36 -1 37 0 22 15 -12 12 -16 31 -14 68 3 47 1 51 -21 54 -20 3 -23 1 -12
-9z"/>
<path d="M3738 2868 c16 -16 16 -100 0 -116 -9 -9 -4 -12 22 -12 23 0 30 3 22
9 -9 5 -12 25 -10 57 3 45 5 49 28 49 23 0 25 -4 28 -57 3 -51 6 -58 24 -58
15 0 18 3 10 13 -6 7 -12 34 -14 61 -4 57 -25 79 -58 59 -12 -8 -21 -9 -25 -3
-3 6 -14 10 -23 10 -12 0 -13 -3 -4 -12z"/>
<path d="M3911 2871 c-7 -5 -10 -14 -6 -20 5 -9 11 -7 20 5 15 21 45 12 45
-15 0 -13 -9 -21 -34 -25 -30 -6 -46 -21 -46 -46 0 -11 29 -40 40 -40 5 0 16
7 24 16 9 8 16 11 16 5 0 -6 10 -11 22 -11 17 0 19 3 10 12 -7 7 -12 33 -12
58 0 25 -5 51 -12 58 -14 14 -47 15 -67 3z m57 -82 c-4 -30 -35 -49 -48 -30
-12 21 6 51 31 51 15 0 20 -5 17 -21z"/>
<path d="M4118 2868 c7 -7 12 -33 12 -59 0 -53 22 -85 49 -73 9 4 32 7 51 6
19 -1 30 2 23 6 -6 4 -13 34 -15 67 -3 55 -5 60 -28 63 -20 3 -23 1 -12 -9 18
-19 15 -94 -4 -110 -24 -20 -44 13 -44 73 0 43 -2 48 -22 48 -17 0 -19 -3 -10
-12z"/>
<path d="M4278 2868 c16 -16 16 -115 0 -121 -7 -3 5 -5 27 -5 22 0 34 2 28 5
-8 3 -13 24 -13 53 0 62 -7 80 -33 80 -16 0 -18 -3 -9 -12z"/>
<path d="M4326 2872 c-2 -4 7 -12 20 -19 24 -11 41 -2 29 17 -7 12 -42 13 -49
2z"/>
<path d="M4418 2869 c-13 -7 -18 -23 -18 -59 0 -41 4 -52 24 -65 19 -13 29
-14 45 -5 27 14 27 23 1 15 -25 -8 -50 10 -50 36 0 15 8 19 40 19 33 0 40 3
40 19 0 41 -44 62 -82 40z m52 -18 c15 -28 13 -31 -20 -31 -31 0 -39 17 -18
38 17 17 26 15 38 -7z"/>
<path d="M3430 2536 c0 -9 5 -16 10 -16 6 0 10 4 10 9 0 6 -4 13 -10 16 -5 3
-10 -1 -10 -9z"/>
<path d="M3493 2539 c14 -8 17 -24 17 -89 0 -65 -3 -81 -17 -89 -15 -8 -10
-10 22 -11 30 0 36 3 27 12 -8 8 -12 45 -12 100 l0 88 -27 0 c-24 -1 -25 -2
-10 -11z"/>
<path d="M4318 2539 c6 -7 12 -23 12 -34 0 -18 -5 -21 -29 -17 -49 7 -76 -54
-49 -113 8 -18 19 -25 40 -25 15 0 28 5 28 12 0 9 3 9 12 0 7 -7 20 -12 31
-12 17 0 17 1 2 16 -13 13 -16 34 -14 98 2 79 2 81 -22 84 -19 3 -22 1 -11 -9z
m1 -73 c7 -8 11 -32 9 -53 -3 -33 -6 -38 -28 -38 -22 0 -25 5 -28 38 -3 36 10
67 28 67 4 0 13 -6 19 -14z"/>
<path d="M3273 2522 c23 -25 24 -134 1 -156 -14 -15 -11 -16 28 -16 34 1 39 3
26 11 -11 6 -18 22 -18 39 0 25 4 30 24 30 14 0 28 5 31 10 4 6 -7 10 -24 10
-29 0 -31 3 -31 35 0 32 2 35 30 35 20 0 30 -5 30 -15 0 -8 5 -15 11 -15 6 0
9 10 7 23 -3 20 -9 22 -68 25 -62 3 -64 3 -47 -16z"/>
<path d="M3770 2530 c0 -5 5 -10 10 -10 15 0 13 -143 -2 -158 -9 -9 -4 -12 26
-12 34 0 36 1 22 16 -9 8 -16 29 -16 45 0 28 2 29 45 29 45 0 45 0 45 -35 0
-22 -6 -38 -17 -44 -15 -8 -10 -10 22 -11 30 0 36 3 27 12 -15 15 -17 158 -2
158 6 0 10 5 10 10 0 6 -16 10 -37 10 -35 0 -36 -1 -19 -19 10 -11 16 -30 14
-43 -3 -20 -9 -23 -43 -23 -34 0 -40 3 -43 23 -2 13 4 32 14 43 17 18 16 19
-19 19 -21 0 -37 -4 -37 -10z"/>
<path d="M3418 2478 c16 -16 16 -100 0 -116 -9 -9 -4 -12 22 -12 26 0 31 3 22
12 -7 7 -12 38 -12 70 0 53 -2 58 -22 58 -17 0 -19 -3 -10 -12z"/>
<path d="M3586 2474 c-22 -22 -21 -87 2 -107 21 -19 67 -22 78 -6 5 8 0 10
-17 6 -29 -7 -44 1 -53 31 -7 21 -4 22 39 22 43 0 46 1 39 23 -3 12 -11 28
-16 35 -14 17 -53 15 -72 -4z m58 -10 c11 -28 7 -34 -24 -34 -33 0 -35 3 -20
31 13 23 36 25 44 3z"/>
<path d="M3986 2474 c-21 -20 -21 -88 0 -109 19 -19 75 -17 82 3 3 11 0 12
-16 3 -26 -14 -28 -14 -46 5 -28 28 -20 44 24 44 35 0 40 3 40 23 0 45 -52 64
-84 31z m58 -10 c11 -28 7 -34 -24 -34 -33 0 -35 3 -20 31 13 23 36 25 44 3z"/>
<path d="M4115 2480 c-12 -19 6 -32 20 -14 16 22 45 12 45 -16 0 -14 -7 -20
-23 -20 -52 0 -75 -49 -35 -74 13 -8 23 -8 38 2 12 7 20 8 20 2 0 -5 10 -10
22 -10 17 0 19 3 10 12 -7 7 -12 33 -12 58 0 25 -5 51 -12 58 -15 15 -64 16
-73 2z m65 -80 c0 -27 -34 -44 -50 -25 -10 12 -10 18 0 30 18 22 50 19 50 -5z"/>
<path d="M4412 2478 c-16 -16 -16 -100 0 -116 15 -15 65 -16 74 0 5 7 1 9 -13
6 -27 -7 -53 9 -53 32 0 17 7 20 40 20 35 0 40 3 40 23 0 30 -18 47 -50 47
-14 0 -31 -5 -38 -12z m56 -10 c21 -21 13 -38 -18 -38 -18 0 -30 5 -30 13 0
13 19 37 30 37 3 0 11 -5 18 -12z"/>
<path d="M4538 2429 c3 -44 0 -64 -10 -70 -8 -6 1 -9 27 -9 30 0 36 3 27 12
-17 17 -15 93 3 108 10 9 15 9 15 1 0 -6 7 -11 15 -11 8 0 15 5 15 10 0 17
-31 24 -51 11 -12 -7 -19 -7 -19 -1 0 5 -6 10 -12 10 -10 0 -12 -17 -10 -61z"/>
<path d="M3410 2115 c0 -8 5 -15 10 -15 6 0 10 7 10 15 0 8 -4 15 -10 15 -5 0
-10 -7 -10 -15z"/>
<path d="M3918 2123 c16 -6 17 -164 0 -181 -9 -9 -3 -12 27 -12 30 0 36 3 27
12 -8 8 -12 45 -12 100 l0 88 -27 -1 c-16 0 -22 -3 -15 -6z"/>
<path d="M4606 2122 c6 -4 14 -19 18 -34 6 -26 5 -27 -24 -22 -43 9 -60 -9
-60 -65 0 -51 13 -71 45 -71 12 0 26 5 33 12 9 9 12 9 12 0 0 -7 10 -12 22
-12 17 0 19 3 10 12 -8 8 -12 45 -12 100 l0 88 -27 0 c-16 0 -23 -4 -17 -8z
m3 -76 c7 -8 11 -32 9 -53 -3 -33 -6 -38 -28 -38 -22 0 -25 5 -28 38 -3 36 10
67 28 67 4 0 13 -6 19 -14z"/>
<path d="M2991 2094 c-31 -39 -29 -107 4 -139 65 -66 157 14 125 110 -20 61
-91 77 -129 29z m97 -14 c26 -49 0 -140 -40 -140 -24 0 -48 43 -48 87 0 77 57
112 88 53z"/>
<path d="M4068 2113 c16 -6 17 -154 0 -171 -9 -9 -3 -12 27 -12 30 0 36 3 27
12 -7 7 -12 27 -12 45 0 32 1 33 40 33 39 0 40 -1 40 -33 0 -18 -5 -38 -12
-45 -9 -9 -3 -12 27 -12 36 0 37 1 23 18 -20 22 -17 150 3 163 9 6 0 9 -25 9
-31 0 -37 -3 -28 -12 7 -7 12 -25 12 -40 0 -26 -3 -28 -40 -28 -37 0 -40 2
-40 28 0 15 5 33 12 40 9 9 3 12 -27 11 -22 0 -34 -3 -27 -6z"/>
<path d="M3318 2080 c-10 -11 -14 -20 -8 -20 5 0 10 -28 12 -62 3 -59 5 -63
28 -66 22 -2 23 -1 8 8 -14 8 -18 24 -18 65 0 43 4 54 18 58 15 4 15 5 0 6 -9
0 -18 8 -20 16 -2 13 -6 12 -20 -5z"/>
<path d="M3158 2063 c16 -6 17 -164 0 -181 -9 -9 -4 -12 22 -12 26 0 31 3 22
12 -7 7 -12 25 -12 42 0 23 3 27 12 18 45 -45 102 45 68 108 -8 16 -21 19 -68
18 -31 0 -51 -3 -44 -5z m90 -56 c3 -51 -14 -71 -43 -47 -18 15 -20 71 -3 88
25 25 43 9 46 -41z"/>
<path d="M3398 2063 c16 -6 16 -105 0 -121 -9 -9 -3 -12 27 -12 36 0 37 1 22
18 -11 12 -17 36 -17 70 0 47 -2 52 -22 51 -13 0 -17 -3 -10 -6z"/>
<path d="M3492 2058 c-18 -18 -15 -94 4 -112 52 -53 122 34 84 105 -12 22 -68
27 -88 7z m66 -10 c17 -17 15 -74 -4 -92 -24 -25 -54 -4 -54 39 0 18 3 40 6
49 7 19 35 21 52 4z"/>
<path d="M3630 2056 c16 -16 12 -87 -7 -108 -15 -17 -14 -18 22 -18 30 0 36 3
27 12 -7 7 -12 33 -12 59 0 35 4 49 17 53 26 10 43 -20 43 -76 0 -43 2 -48 22
-48 17 0 19 3 10 12 -7 7 -12 33 -12 59 0 26 -6 51 -12 57 -17 14 -113 13 -98
-2z"/>
<path d="M3795 2059 c-11 -17 2 -21 24 -7 18 11 23 11 31 -2 14 -22 7 -34 -25
-40 -32 -6 -51 -30 -42 -54 9 -23 36 -31 58 -17 12 7 19 7 19 1 0 -5 6 -10 14
-10 10 0 12 12 9 48 -8 88 -10 92 -48 92 -18 0 -37 -5 -40 -11z m63 -75 c-5
-25 -35 -41 -49 -27 -18 18 -3 43 26 43 19 0 26 -5 23 -16z"/>
<path d="M4272 2050 c-17 -27 -15 -71 4 -98 12 -17 24 -22 47 -20 41 4 46 23
6 23 -24 0 -34 6 -40 23 -8 21 -6 22 36 22 48 0 51 4 35 44 -7 21 -16 26 -42
26 -22 0 -37 -7 -46 -20z m66 -15 c2 -15 -3 -20 -23 -20 -16 0 -25 6 -25 16 0
35 43 39 48 4z"/>
<path d="M4407 2064 c-12 -12 -8 -24 7 -24 8 0 16 5 18 12 7 19 38 1 38 -22 0
-16 -7 -20 -30 -20 -36 0 -56 -30 -40 -60 12 -23 40 -26 59 -7 11 10 14 10 18
0 3 -7 12 -13 20 -13 11 0 13 3 5 13 -6 7 -12 37 -14 67 l-3 55 -35 3 c-20 2
-39 0 -43 -4z m61 -86 c-4 -30 -48 -39 -48 -10 0 24 8 32 32 32 14 0 19 -6 16
-22z"/>
<path d="M4701 2051 c-16 -28 -13 -73 5 -99 17 -25 56 -29 74 -7 11 13 8 14
-18 9 -24 -5 -32 -2 -41 14 -16 30 -15 32 28 32 47 0 54 8 38 41 -17 32 -71
39 -86 10z m64 -16 c0 -14 -6 -19 -22 -18 -34 1 -35 1 -23 24 14 25 45 21 45
-6z"/>
<path d="M4828 2063 c16 -6 16 -105 0 -121 -9 -9 -3 -12 28 -12 31 1 36 3 22
11 -12 7 -18 22 -18 48 0 41 22 82 34 63 10 -17 26 -15 26 2 0 11 -13 15 -52
14 -29 0 -47 -3 -40 -5z"/>
<path d="M5286 2979 c-24 -72 -5 -91 24 -25 24 56 25 76 6 76 -8 0 -21 -22
-30 -51z"/>
<path d="M2632 2892 c-40 -26 -51 -48 -21 -46 24 2 100 54 94 64 -9 15 -26 11
-73 -18z"/>
<path d="M5190 2744 c-16 -40 -20 -58 -12 -66 8 -8 18 5 36 47 24 54 26 75 7
75 -5 0 -19 -25 -31 -56z"/>
<path d="M5097 2518 c-17 -38 -21 -57 -14 -66 6 -7 13 -9 17 -5 13 16 48 112
42 117 -12 13 -22 4 -45 -46z"/>
<path d="M2533 2152 c-8 -5 1 -21 25 -50 28 -32 41 -40 52 -32 12 8 8 16 -25
49 -24 24 -45 37 -52 33z"/>
<path d="M2675 1980 c-8 -12 55 -91 66 -84 15 9 10 24 -18 60 -29 36 -38 40
-48 24z"/>
<path d="M5115 1621 c-3 -6 9 -34 27 -63 40 -67 37 -63 49 -51 7 7 1 27 -21
67 -31 55 -43 65 -55 47z"/>
<path d="M5264 1392 c-12 -8 49 -112 66 -112 16 0 11 19 -17 71 -29 51 -31 53
-49 41z"/>
<path d="M5397 1164 c-7 -7 62 -114 74 -114 20 0 15 21 -17 68 -33 50 -44 59
-57 46z"/>
</g>
</svg>
